# xmcd
#
# Track frame offsets: 
#        150
#        15345
#        33855
#        52482
#        70680
#        84972
#        101555
#        117665
#        136372
#        152805
#        168210
#        184550
#        199697
#        213790
#        227950
#        242510
#        256570
#        271685
#        284362
#        298590
#
# Disc length: 4179 seconds
#
# Revision: 5
# Processed by: cddbd v1.5.2PL0 Copyright (c) Steve Scherf et al.
# Submitted via: ExactAudioCopy v1.3
#
DISCID=0e105114
DTITLE=Various Artist - CDX 134 April 1996
DYEAR=1996
DGENRE=Country
TTITLE0=Tracy Byrd - 4 To 1 In Atlanta
TTITLE1=Philip Claypool - Circus Leaving Town
TTITLE2=Great Plains - Dancin' With The Wind
TTITLE3=Paul Overstreet - Even When It Don't Feel Like It
TTITLE4=Aaron Tippin - Everything I Own (Edit)
TTITLE5=Keith Stegall - Fifty-fifty
TTITLE6=Lee Roy Parnell - Givin' Water To A Drowning Main
TTITLE7=Chris LeDoux - Gravitational Pull
TTITLE8=James Bonamy - I Don't Think I Will
TTITLE9=Emilio - I Think We're On To Something
TTITLE10=Highway 101 and Paulette Carlson - It Must Be Love
TTITLE11=Marty Haggard - Lovin' Time
TTITLE12=Mandy Barnett - Maybe  (Single Mix)
TTITLE13=Shania Twain - No One Needs To Know
TTITLE14=Wade Hayes - On A Good Night
TTITLE15=Alabama - Say I  (Remix)
TTITLE16=Neil McCoy - Then You Can Tell Me Goodbye
TTITLE17=Smokin' Armadillos - Thump Factor
TTITLE18=Merle Haggard - Truck Driver's Blues
TTITLE19=Lynyrd Skynyrd - White Knuckle Ride
EXTD=
EXTT0=
EXTT1=
EXTT2=
EXTT3=
EXTT4=
EXTT5=
EXTT6=
EXTT7=
EXTT8=
EXTT9=
EXTT10=
EXTT11=
EXTT12=
EXTT13=
EXTT14=
EXTT15=
EXTT16=
EXTT17=
EXTT18=
EXTT19=
PLAYORDER=
